# xmcd CD database file
#
# Track frame offsets:
#	150
#	18719
#	31133
#	49318
#	67998
#	82464
#	94213
#	118090
#	131876
#	148306
#
# Disc length: 2196 seconds
#
# Revision: 0
# Processed by: cddbd v1.5.1PL2 Copyright (c) Steve Scherf et al.
# Submitted via: CDex 1.60beta1-cs1
#
DISCID=9b08920a
DTITLE=太田昌宏 - ジャズ・アレンジ Vol 7
DYEAR=1900
DGENRE=Jazz
TTITLE0=波浮の港
TTITLE1=七里ケ浜の哀歌
TTITLE2=ゴンドラの唄
TTITLE3=君待てども
TTITLE4=港が見える丘
TTITLE5=さすらいの唄
TTITLE6=人を恋いうる歌
TTITLE7=ああ玉杯に花うけて
TTITLE8=紅萌ゆる岡の花
TTITLE9=仰げば尊し
EXTD=
EXTT0=
EXTT1=
EXTT2=
EXTT3=
EXTT4=
EXTT5=
EXTT6=
EXTT7=
EXTT8=
EXTT9=
PLAYORDER=
